<?xml version="1.0" ?><svg height="500" id="svg2" version="1.1" width="500" xmlns="http://www.w3.org/2000/svg" xmlns:cc="http://creativecommons.org/ns#" xmlns:dc="http://purl.org/dc/elements/1.1/" xmlns:inkscape="http://www.inkscape.org/namespaces/inkscape" xmlns:rdf="http://www.w3.org/1999/02/22-rdf-syntax-ns#" xmlns:sodipodi="http://sodipodi.sourceforge.net/DTD/sodipodi-0.dtd" xmlns:svg="http://www.w3.org/2000/svg"><defs id="defs4"/><g id="layer1" transform="translate(0,-552.36218)"><path d="m 0,552.36215 0,500.00005 500,0 0,-500.00005 z" id="rect2989-174" style="fill:#4b4b4b;fill-opacity:1;stroke:none"/><path d="M 100.03125 87.5 C 79.329133 87.5 75 104.36038 75 125.0625 L 75 163.15625 C 59.473419 183.95602 50 209.57168 50 237.5 L 50 287.5 C 50 356.53958 105.96041 412.5 175 412.5 L 325 412.5 C 394.0396 412.5 450 356.53958 450 287.5 L 450 237.5 C 450 209.57168 440.52662 183.95602 425 163.15625 L 425 125.0625 C 425 104.36038 420.67087 87.5 399.96875 87.5 C 382.4891 87.5 359.93325 99.696119 353 115.90625 C 343.96762 113.80711 334.66752 112.5 325 112.5 L 175 112.5 C 165.33248 112.5 156.03313 113.80633 147 115.90625 C 140.06675 99.696119 117.51086 87.5 100.03125 87.5 z M 175 237.5 L 325 237.5 C 366.40423 237.5 399.96875 271.09578 399.96875 312.5 C 399.96875 353.90421 366.40423 387.5 325 387.5 L 175 387.5 C 133.59577 387.5 100.03125 353.90421 100.03125 312.5 C 100.03125 271.09578 133.59577 237.5 175 237.5 z M 175 262.46875 C 154.29788 262.46875 150 279.3604 150 300.0625 L 150 313.3125 C 150 334.0146 154.29788 350.875 175 350.875 C 195.70212 350.875 200.03125 334.0146 200.03125 313.3125 L 200.03125 300.0625 C 200.03125 279.3604 195.70212 262.46875 175 262.46875 z M 325 262.46875 C 304.29788 262.46875 299.96875 279.3604 299.96875 300.0625 L 299.96875 313.3125 C 299.96875 334.0146 304.29788 350.875 325 350.875 C 345.70212 350.875 350 334.0146 350 313.3125 L 350 300.0625 C 350 279.3604 345.70212 262.46875 325 262.46875 z " id="rect2989-9" style="fill:#ffffff;fill-opacity:1;stroke:none" transform="translate(0,552.36218)"/><g id="layer1-9" transform="translate(-549.00515,80.294372)"/><g id="layer1-4" transform="matrix(1.2144212,0,0,1.2144212,-1056.0375,377.09109)"><g id="layer1-7" transform="translate(55.728928,-28.316651)"/><g id="g3006" style="fill:#ffffff" transform="matrix(0.17871094,0,0,0.17871094,245.33672,459.25678)"/></g><g id="g3779"><path d="M 416.4375 93.3125 L 416.40625 93.34375 C 423.2023 100.01455 425 111.73955 425 125.0625 L 425 163.15625 C 440.52662 183.95602 450 209.57168 450 237.5 L 450 287.5 C 450 356.53958 394.0396 412.5 325 412.5 L 175 412.5 C 141.55895 412.5 111.18062 399.38559 88.75 378 L 210.75 500 L 500 500 L 500 176.90625 L 416.4375 93.3125 z " id="rect2989-1" style="fill:#000000;fill-opacity:1;stroke:none;opacity:0.29999999999999999" transform="translate(0,552.36218)"/><path d="M 175 237.5 C 133.59577 237.5 100.03125 271.09578 100.03125 312.5 C 100.03125 353.90421 133.59577 387.5 175 387.5 L 325 387.5 C 366.40423 387.5 399.96875 353.90421 399.96875 312.5 C 399.96875 271.09578 366.40423 237.5 325 237.5 L 175 237.5 z M 175 262.46875 C 195.70212 262.46875 200.03125 279.3604 200.03125 300.0625 L 200.03125 313.3125 C 200.03125 334.0146 195.70212 350.875 175 350.875 C 154.29788 350.875 150 334.0146 150 313.3125 L 150 300.0625 C 150 279.3604 154.29788 262.46875 175 262.46875 z M 325 262.46875 C 345.70212 262.46875 350 279.3604 350 300.0625 L 350 313.3125 C 350 334.0146 345.70212 350.875 325 350.875 C 304.29788 350.875 299.96875 334.0146 299.96875 313.3125 L 299.96875 300.0625 C 299.96875 279.3604 304.29788 262.46875 325 262.46875 z " id="rect2989-17" style="fill:#000000;fill-opacity:1;stroke:none;opacity:0.3" transform="translate(0,552.36218)"/></g></g></svg>