<?xml version="1.0" ?><svg height="500" id="svg2" version="1.1" width="500" xmlns="http://www.w3.org/2000/svg" xmlns:cc="http://creativecommons.org/ns#" xmlns:dc="http://purl.org/dc/elements/1.1/" xmlns:inkscape="http://www.inkscape.org/namespaces/inkscape" xmlns:rdf="http://www.w3.org/1999/02/22-rdf-syntax-ns#" xmlns:sodipodi="http://sodipodi.sourceforge.net/DTD/sodipodi-0.dtd" xmlns:svg="http://www.w3.org/2000/svg"><defs id="defs4"/><g id="layer1" transform="translate(0,-552.36218)"><rect height="500" id="rect3834" style="fill:#d73d32;fill-opacity:1;stroke:none" width="500" x="0" y="552.36218"/><path d="M 202.5 60 C 188.35232 60.00384 173.87389 61.51667 159.5625 64.5625 C 138.40236 69.28618 121.0542 80.54212 106.59375 97.4375 C 92.130369 114.18672 84.65325 132.77868 84.65625 154.09375 C 84.652806 176.6248 93.205434 195.81106 109.34375 210.71875 C 125.63403 225.65567 145.12943 232.625 167.8125 232.625 C 172.37835 232.625 177.20326 232.47872 183.3125 231.71875 C 182.99095 232.94643 183.16624 234.14741 182.40625 236.28125 C 181.61702 238.26895 181.06144 240.55355 180.59375 241.78125 C 180.12605 242.9797 179.04029 244.5022 178.71875 246.34375 C 178.42646 248.0099 178.71875 249.09394 178.71875 250.90625 C 178.71875 260.96162 183.60992 272.99933 193.34375 285.65625 C 181.7976 285.94854 169.92178 286.53145 158.65625 288.34375 C 147.39071 290.03914 135.36369 292.79375 123.03125 296.59375 C 110.70171 300.2476 99.90179 305.83846 90.15625 313 C 80.413634 320.01538 73.09151 327.95367 68.21875 337.6875 C 62.585987 348.94134 60 359.4526 60 368.71875 C 60 378.94951 61.837489 387.9424 66.40625 396.15625 C 70.972107 404.51624 77.500577 411.98239 84.65625 417.15625 C 91.80902 422.47623 100.05713 426.42981 109.34375 429.9375 C 118.78236 433.59133 127.58413 436.63836 136.71875 438.1875 C 146.00535 439.70766 155.14241 440 164.125 440 C 204.91652 440 236.88051 429.77913 260.03125 409.84375 C 281.34047 391.25299 292.0333 370.28469 292.0625 345.90625 C 292.03319 337.22473 290.97653 328.73509 288.375 321.28125 C 285.94885 313.65201 282.43605 307.38049 278.34375 302.03125 C 274.36837 296.56511 270.41279 291.9975 265.53125 287.4375 C 260.67896 282.73136 255.78779 278.45626 250.90625 274.65625 C 246.05396 270.85625 241.30904 267.1952 237.1875 263.6875 C 233.24135 260.1798 229.7598 256.55001 227.1875 252.75 C 224.73211 248.95 223.53125 244.82115 223.53125 240.875 C 223.53125 235.37961 225.49232 230.04787 229 225.3125 C 232.5077 220.4602 236.75355 216.03883 241.78125 211.625 C 246.80894 207.03577 252.28482 202.35125 257.3125 197.03125 C 262.34021 191.68202 266.58605 184.68738 270.09375 176 C 273.57219 167.16647 274.6875 157.14053 274.6875 145.875 C 274.6875 132.47856 272.36933 118.92328 266.40625 106.59375 C 260.47241 94.25837 251.66114 85.10167 240.875 78.25 L 271.9375 78.25 L 302.96875 60 L 202.5 60 z M 171.46875 76.4375 C 181.50953 76.44134 190.77607 79.31882 198.84375 85.5625 C 207.0576 91.80327 213.43999 99.75023 218 109.34375 C 222.73537 118.93435 226.57385 129.11524 229 139.46875 C 231.60153 149.67029 232.65625 159.58122 232.65625 168.71875 C 232.65625 183.95382 229.31683 195.95464 222.59375 205.25 C 216.0753 214.36999 205.41778 218.9375 190.65625 218.9375 C 182.88087 218.9375 175.71952 217.41491 168.71875 213.46875 C 161.71507 209.5226 155.30733 204.16363 150.4375 197.9375 C 145.56471 191.53595 141.31011 183.92737 137.65625 176 C 134.00241 168.08431 131.26443 160.20277 129.4375 152.28125 C 127.7626 144.36556 126.65625 137.46819 126.65625 130.3125 C 126.65625 115.69712 130.79881 102.47427 138.5625 91.96875 C 146.32618 81.46321 157.30938 76.4405 171.46875 76.4375 z M 352.3125 147.6875 L 352.3125 206.15625 L 293.84375 206.15625 L 293.84375 235.375 L 352.3125 235.375 L 352.3125 293.84375 L 381.53125 293.84375 L 381.53125 235.375 L 440 235.375 L 440 206.15625 L 381.53125 206.15625 L 381.53125 147.6875 L 352.3125 147.6875 z M 202.0625 299.1875 C 204.07941 299.1473 205.77634 299.18297 207.0625 299.34375 C 207.96866 299.92835 209.81492 301.30472 213.46875 303.90625 C 217.26875 306.47856 219.55356 308.43759 220.78125 309.34375 C 222.15508 310.27914 224.70096 312.27345 228.0625 314.875 C 231.57018 317.44729 234.00116 318.96991 235.375 320.34375 C 236.89501 321.57144 239.03356 324.11721 241.78125 326.71875 C 244.49969 329.32028 246.95981 331.13731 248.1875 333.125 C 249.53212 334.93731 250.90846 337.6898 252.75 340.4375 C 254.70846 343.15596 256.55252 345.11722 257.3125 347.71875 C 258.07251 350.14491 258.54039 352.92875 259.125 355.96875 C 259.91423 358.8626 260.03125 361.87837 260.03125 365.09375 C 260.03125 374.68144 257.92394 383.52396 253.65625 390.65625 C 249.53472 397.81779 244.34902 403.1476 237.1875 407.09375 C 230.05519 411.21528 221.6826 414.40847 213.46875 416.25 C 205.40107 418.20847 196.8801 418.96875 187.90625 418.96875 C 178.17242 418.96875 168.24686 417.62374 158.65625 415.34375 C 149.06565 413.06373 140.08061 410.01663 131.25 405.28125 C 122.57139 400.72126 115.72784 394.30759 110.25 386.09375 C 104.92125 378.02606 102.03125 369.06641 102.03125 358.71875 C 102.03125 349.5695 104.2964 341.1928 108.40625 334.03125 C 112.51901 326.86973 117.5418 320.95521 123.9375 316.6875 C 130.33025 312.41981 138.25464 309.37471 146.78125 306.65625 C 155.30493 303.90855 163.55306 301.30231 171.46875 300.25 C 179.37569 299.16847 186.97365 299.34375 195.1875 299.34375 C 197.70134 299.34375 200.04558 299.2278 202.0625 299.1875 z " id="rect3829" style="opacity:1;fill:#ffffff;fill-opacity:1;stroke:none" transform="translate(0,552.36218)"/><g id="layer1-9" transform="translate(-549.00515,80.294372)"/><g id="layer1-1" transform="matrix(1.0012822,0,0,1.0012822,-569.09131,22.083407)"/><g id="g3824"><path d="M 302.96875 60 L 271.9375 78.25 L 240.875 78.25 C 251.66114 85.10167 260.47241 94.25837 266.40625 106.59375 C 272.36933 118.92328 274.6875 132.47856 274.6875 145.875 C 274.6875 157.14053 273.57219 167.16647 270.09375 176 C 266.58605 184.68738 262.34021 191.68202 257.3125 197.03125 C 252.28482 202.35125 246.80894 207.03577 241.78125 211.625 C 236.75355 216.03883 232.5077 220.4602 229 225.3125 C 225.49232 230.04787 223.53125 235.37961 223.53125 240.875 C 223.53125 244.82115 224.73211 248.95 227.1875 252.75 C 229.7598 256.55001 233.24135 260.1798 237.1875 263.6875 C 241.30904 267.1952 246.05396 270.85625 250.90625 274.65625 C 255.78779 278.45626 260.67896 282.73136 265.53125 287.4375 C 270.41279 291.9975 274.36837 296.56511 278.34375 302.03125 C 282.43605 307.38049 285.94885 313.65201 288.375 321.28125 C 290.97653 328.73509 292.03319 337.22473 292.0625 345.90625 C 292.0333 370.28469 281.34047 391.25299 260.03125 409.84375 C 236.88051 429.77913 204.91652 440 164.125 440 C 155.14241 440 146.00535 439.70766 136.71875 438.1875 C 127.58413 436.63836 118.78236 433.59133 109.34375 429.9375 C 100.05713 426.42981 91.80902 422.47623 84.65625 417.15625 C 81.787343 415.08191 79.018708 412.62741 76.4375 409.90625 L 76.3125 409.875 L 166.4375 500 L 500 500 L 500 257.03125 L 302.96875 60 z M 352.3125 147.6875 L 381.53125 147.6875 L 381.53125 206.15625 L 440 206.15625 L 440 235.375 L 381.53125 235.375 L 381.53125 293.84375 L 352.3125 293.84375 L 352.3125 235.375 L 293.84375 235.375 L 293.84375 206.15625 L 352.3125 206.15625 L 352.3125 147.6875 z " id="rect2989-1" style="fill:#000000;fill-opacity:1;stroke:none;opacity:0.3" transform="translate(0,552.36218)"/><path d="M 171.46875 76.4375 C 157.30938 76.4405 146.32618 81.46321 138.5625 91.96875 C 130.79881 102.47427 126.65625 115.69712 126.65625 130.3125 C 126.65625 137.46819 127.7626 144.36556 129.4375 152.28125 C 131.26443 160.20277 134.00241 168.08431 137.65625 176 C 141.31011 183.92737 145.56471 191.53595 150.4375 197.9375 C 155.30733 204.16363 161.71507 209.5226 168.71875 213.46875 C 175.71952 217.41491 182.88087 218.9375 190.65625 218.9375 C 205.41778 218.9375 216.0753 214.36999 222.59375 205.25 C 229.31683 195.95464 232.65625 183.95382 232.65625 168.71875 C 232.65625 159.58122 231.60153 149.67029 229 139.46875 C 226.57385 129.11524 222.73537 118.93435 218 109.34375 C 213.43999 99.75023 207.0576 91.80327 198.84375 85.5625 C 190.77607 79.31882 181.50953 76.44134 171.46875 76.4375 z " id="path3782" style="fill:#000000;stroke:#000000;stroke-width:1px;stroke-linecap:butt;stroke-linejoin:miter;stroke-opacity:1;opacity:0.3" transform="translate(0,552.36218)"/><path d="M 202.0625 299.1875 C 200.04558 299.2278 197.70134 299.34375 195.1875 299.34375 C 186.97365 299.34375 179.37569 299.16847 171.46875 300.25 C 163.55306 301.30231 155.30493 303.90855 146.78125 306.65625 C 138.25464 309.37471 130.33025 312.41981 123.9375 316.6875 C 117.5418 320.95521 112.51901 326.86973 108.40625 334.03125 C 104.2964 341.1928 102.03125 349.5695 102.03125 358.71875 C 102.03125 369.06641 104.92125 378.02606 110.25 386.09375 C 115.72784 394.30759 122.57139 400.72126 131.25 405.28125 C 140.08061 410.01663 149.06565 413.06373 158.65625 415.34375 C 168.24686 417.62374 178.17242 418.96875 187.90625 418.96875 C 196.8801 418.96875 205.40107 418.20847 213.46875 416.25 C 221.6826 414.40847 230.05519 411.21528 237.1875 407.09375 C 244.34902 403.1476 249.53472 397.81779 253.65625 390.65625 C 257.92394 383.52396 260.03125 374.68144 260.03125 365.09375 C 260.03125 361.87837 259.91423 358.8626 259.125 355.96875 C 258.54039 352.92875 258.07251 350.14491 257.3125 347.71875 C 256.55252 345.11722 254.70846 343.15596 252.75 340.4375 C 250.90846 337.6898 249.53212 334.93731 248.1875 333.125 C 246.95981 331.13731 244.49969 329.32028 241.78125 326.71875 C 239.03356 324.11721 236.89501 321.57144 235.375 320.34375 C 234.00116 318.96991 231.57018 317.44729 228.0625 314.875 C 224.70096 312.27345 222.15508 310.27914 220.78125 309.34375 C 219.55356 308.43759 217.26875 306.47856 213.46875 303.90625 C 209.81492 301.30472 207.96866 299.92835 207.0625 299.34375 C 205.77634 299.18297 204.07941 299.1473 202.0625 299.1875 z " id="path3784" style="fill:#000000;stroke:#000000;stroke-width:1px;stroke-linecap:butt;stroke-linejoin:miter;stroke-opacity:1;opacity:0.3" transform="translate(0,552.36218)"/></g></g></svg>