<?xml version="1.0" ?><svg height="500" id="svg2" version="1.1" width="500" xmlns="http://www.w3.org/2000/svg" xmlns:cc="http://creativecommons.org/ns#" xmlns:dc="http://purl.org/dc/elements/1.1/" xmlns:inkscape="http://www.inkscape.org/namespaces/inkscape" xmlns:rdf="http://www.w3.org/1999/02/22-rdf-syntax-ns#" xmlns:sodipodi="http://sodipodi.sourceforge.net/DTD/sodipodi-0.dtd" xmlns:svg="http://www.w3.org/2000/svg"><defs id="defs4"/><g id="layer1" transform="translate(0,-552.36218)"><path d="m 0,552.36216 0,500.00004 499.99998,0 0,-500.00004 z" id="rect2989-1" style="fill:#0077b5;fill-opacity:1;stroke:none"/><g id="layer1-9" transform="translate(-549.00515,80.294372)"/><g id="layer1-6" transform="translate(-575.71429,39.999999)"/><g id="layer1-92" transform="matrix(0.99533037,0,0,0.99716768,619.96997,-73.128637)"><g id="layer1-9-7" transform="translate(-1068,-236)"/></g><path d="M 500,500 126.71875,500 67.477679,440.75893 122.06473,187.46652 73.136161,138.53794 138.28125,73.102678 254.71539,189.53682 l 15.0348,-3.14973 17.33315,17.33315 125.46263,-1.69032 L 500,289.48395 z" id="path3003" style="fill:#000000;stroke:none;stroke-width:1px;stroke-linecap:butt;stroke-linejoin:miter;stroke-opacity:1;opacity:0.29999999999999999" transform="translate(0,552.36218)"/><path d="M 106.03125 60 C 80.60256 60 60 80.64943 60 106.125 C 60 131.6007 80.60256 152.25 106.03125 152.25 C 131.45995 152.25 152.0625 131.6007 152.0625 106.125 C 152.0625 80.64943 131.45995 60 106.03125 60 z M 347.125 180.09375 L 347.125 180.125 C 341.92573 180.10645 336.88108 180.31462 330.28125 180.65625 C 315.80692 181.40552 282.00248 197.08871 269.625 222.125 C 269.625 211.25547 269.75 201.27259 269.75 186.375 C 254.92383 186.375 235.52129 186.46875 195 186.46875 C 195 231.95964 194.5 393.05913 194.5 440 L 272.96875 440 C 272.96875 412.15339 273.34375 342.20599 273.34375 298.28125 C 273.34375 283.53194 282.25959 249.46875 318.84375 249.46875 C 352.06267 249.46875 361.375 277.46687 361.375 298.28125 C 361.375 344.02682 361.03125 408.69063 361.03125 440 L 439.96875 440 C 439.96875 409.39533 440.24939 326.26252 439.3125 273.8125 C 438.17494 210.12888 399.49162 182.95701 364.78125 180.8125 C 357.63837 180.37135 352.32426 180.1127 347.125 180.09375 z M 66.625 187.46875 L 66.625 439.875 L 145.3125 439.875 L 145.3125 187.46875 L 66.625 187.46875 z " id="rect2989-1-7" style="fill:#ffffff;fill-opacity:1;stroke:none" transform="translate(0,552.36218)"/></g></svg>