<?xml version="1.0" ?><!DOCTYPE svg  PUBLIC '-//W3C//DTD SVG 1.1//EN'  'http://www.w3.org/Graphics/SVG/1.1/DTD/svg11.dtd'><svg enable-background="new 0 0 512 512" height="512px" id="Layer_1" version="1.1" viewBox="0 0 512 512" width="512px" xml:space="preserve" xmlns="http://www.w3.org/2000/svg" xmlns:xlink="http://www.w3.org/1999/xlink"><g><polygon clip-rule="evenodd" fill="#CDD8E2" fill-rule="evenodd" points="0,0 435.207,0 512,76.791 512,512 76.793,512 0,435.207     "/><polygon clip-rule="evenodd" fill="#F1F8FD" fill-rule="evenodd" points="435.207,0 512,76.791 435.207,76.791  "/><polygon clip-rule="evenodd" fill="#A1AEBB" fill-rule="evenodd" points="435.207,76.791 512,153.586 512,76.791  "/><polygon clip-rule="evenodd" fill="#F1F8FD" fill-rule="evenodd" points="76.793,512 0,435.207 76.793,435.207  "/><polygon clip-rule="evenodd" fill="#A1AEBB" fill-rule="evenodd" points="153.588,512 76.793,435.207 76.793,512  "/><path clip-rule="evenodd" d="M121.689,383.66l2.873-12.094h-13.002   c-3.475,0-5.592-0.305-6.652-1.059l16.176,16.172C121.236,385.773,121.537,384.871,121.689,383.66L121.689,383.66z    M200.297,413.285h-52.607h-1.965c-0.754,0-1.359,0-1.967,0c-2.418-0.148-3.928-0.301-4.834-1.059L238.693,512h3.779h3.928H512   V279.961L358.262,126.373c3.176,3.629,6.051,7.561,8.316,11.941c0.156,0.453,0.453,0.908,0.605,1.363   c6.957,5.439,12.395,11.939,16.324,19.498c0.301,0.455,0.453,0.908,0.754,1.361c6.957,5.443,12.402,11.941,16.332,19.652   c4.984,9.521,7.559,21.465,7.559,35.674c0,82.988-84.352,108.539-153.438,108.539h-19.953c-3.627,0-7.256,2.422-8.164,6.047   l-17.383,75.426C208.307,410.113,204.678,413.285,200.297,413.285L200.297,413.285z M141.645,392.422h-13.002   c-0.754,0-1.361,0-1.814,0c-2.568-0.148-4.08-0.445-4.99-1.203l16.328,16.477c0.152-0.91,0.301-1.969,0.607-3.023v-0.301   L141.645,392.422z" fill="#A1AEBB" fill-rule="evenodd"/><path d="M408.152,215.863c0,82.988-84.352,108.539-153.438,108.539c-6.65,0-13.303,0-19.953,0   c-3.627,0-7.256,2.422-8.164,6.047l-17.383,75.426c-0.908,4.238-4.537,7.41-8.918,7.41c-18.293,0-36.432,0-54.572,0   c-8.164,0-8.766-0.906-6.951-8.613l58.799-255.018c1.664-6.955,5.746-9.221,12.701-9.221c29.174,0,58.348,0,87.523,0   c17.844,0,33.41,1.357,46.559,3.777c13.305,2.42,24.793,6.65,34.469,12.547c9.52,6.049,16.777,13.756,21.77,23.432   C405.578,189.711,408.152,201.654,408.152,215.863L408.152,215.863z" fill="#517DA8"/><path d="M391.066,195.004c0,82.988-84.199,108.383-153.434,108.383c-6.648,0-13.301,0-19.953,0   c-3.629,0-7.258,2.574-8.164,6.199l-17.385,75.438c-0.904,4.227-4.533,7.398-8.916,7.398c-18.141,0-36.432,0-54.572,0   c-8.162,0-8.617-1.051-6.953-8.762l58.953-254.869c1.514-6.953,5.594-9.221,12.549-9.221c29.174,0,58.352,0,87.523,0   c17.84,0,33.406,1.211,46.711,3.627c13.148,2.572,24.641,6.654,34.316,12.699c9.523,5.895,16.777,13.758,21.766,23.279   C388.492,168.852,391.066,180.795,391.066,195.004L391.066,195.004z" fill="#EFF5FA"/><path d="M373.984,174.141c0,82.992-84.195,108.391-153.281,108.391c-6.652,0-13.301,0-19.953,0   c-3.779,0-7.41,2.566-8.164,6.195l-17.385,75.434c-1.057,4.074-4.684,7.406-9.07,7.406c-18.139,0-36.277,0-54.57,0   c-8.01,0-8.617-1.059-6.801-8.77l58.801-255.016c1.666-6.803,5.746-9.07,12.549-9.07c29.176,0,58.348,0,87.527,0   c17.832,0,33.406,1.207,46.707,3.627c13.305,2.42,24.793,6.65,34.316,12.699c9.676,5.896,16.93,13.754,21.918,23.277   S373.984,159.783,373.984,174.141L373.984,174.141z M299.004,180.945c0-10.582-3.93-18.443-11.637-23.584   c-7.711-5.139-19.047-7.707-34.316-7.707c-6.498,0-12.848,0-19.348,0c-5.291,0-9.674,2.721-10.885,8.162l-15.268,65.76   c-1.209,4.834,1.965,7.557,6.65,7.557c5.592,0,11.34,0,16.934,0c21.314,0,38.092-4.385,49.881-13.002   C293.113,209.363,299.004,196.969,299.004,180.945L299.004,180.945z" fill="#2C5581"/></g></svg>