<?xml version="1.0" ?><svg height="301px" version="1.1" viewBox="0 0 480 301" width="480px" xmlns="http://www.w3.org/2000/svg" xmlns:sketch="http://www.bohemiancoding.com/sketch/ns" xmlns:xlink="http://www.w3.org/1999/xlink"><title/><desc/><defs/><g fill="none" fill-rule="evenodd" id="round-rect" stroke="none" stroke-width="1"><g id="stripe"><path d="M444,3.03581628e-06 C420,5.30180998e-06 165.902344,-4.81179503e-06 24,3.03581628e-06 C12,3.6994511e-06 -6.11066753e-13,12.0056015 -1.42108547e-14,24.0112 C-1.42108547e-14,96.1913435 2.8991193e-06,240.111972 -1.42108547e-14,264.123169 C-1.38851962e-06,288.134366 12,300.139965 36,300.139965 C169.869629,300.139965 420,300.139967 444,300.139965 C468,300.139965 480,288.134366 480,264.123169 C479.999998,240.111972 479.999994,115.769809 480,36.0167984 C480,12.0056015 468,3.03581628e-06 444,3.03581628e-06 Z" fill="#4186CD" id="Rectangle-2"/><g fill="#FFFFFF" id="Group" transform="translate(50.000000, 71.000000)"><path d="M333.799797,90.6754783 C333.802611,90.7464857 333.805389,90.8171224 333.808126,90.8873815 C334.846467,117.536557 371.306359,102.776229 374.429153,100.782178 L377.306031,120.184989 C373.462422,123.175092 362.864009,127.45892 346.035901,127.45892 C318.225242,127.45892 306.103216,109.795648 306.103216,81.978612 C306.103216,54.1615759 321.542048,36.4983038 342.909499,36.4983038 C371.060443,36.4983038 380,57.1071254 380,78.5251516 L380,90.6754735 L333.799797,90.6754735 Z M333.604663,73.8520366 C334.141571,64.2575247 336.442812,55.4586424 344.031107,55.4586424 C352.861584,55.4586424 354.039813,68.6481769 353.636523,73.717262 L353.846046,73.8520366 L333.604663,73.8520366 Z" id="e"/><path d="M249.522178,46.7035955 C256.432758,39.7326085 263.857644,36.4983038 271.144353,36.4983038 C295.338999,36.4983038 300.418848,59.0390806 300.418848,82.4063265 C300.418848,106.855111 288.585574,127.45892 263.470456,127.45892 C258.322811,127.45892 254.311382,126.62657 251.533283,125.290097 L251.533283,153.406933 L223.964099,157.969221 L223.964099,37.9240188 L248.122663,37.9240188 L249.522178,46.7035955 Z M251.410054,63.1344831 C258.879075,56.826985 272.465524,50.3038246 272.465524,80.5701616 C272.465524,109.526004 259.017562,108.356487 251.533283,104.765973 L251.533283,69.5682086 C251.533283,67.2315395 251.48741,65.087993 251.410054,63.1344776 Z" id="p"/><path d="M198.95288,29.6548718 C207.115293,29.6548718 213.732236,23.0164026 213.732236,14.8274359 C213.732236,6.63846918 207.115293,0 198.95288,0 C190.790466,0 184.173523,6.63846918 184.173523,14.8274359 C184.173523,23.0164026 190.790466,29.6548718 198.95288,29.6548718 Z M184.74196,37.9240188 L213.1638,37.9240188 L213.1638,125.748062 L184.74196,125.748062 L184.74196,37.9240188 Z" id="i"/><path d="M130.456245,37.9240188 L154.614809,37.9240188 L156.161097,48.4797741 C156.161097,48.4797741 160.646124,33.6396339 178.204936,37.6155825 L178.204936,63.3017456 C162.265044,61.776305 158.02543,68.5144465 158.02543,69.5682086 L158.02543,125.748062 L130.456245,125.748062 L130.456245,37.9240188 Z" id="r"/><path d="M68.1141607,125.410569 L68.1141607,103.506908 C79.8659251,106.300976 84.030391,104.502124 84.030391,94.6106696 L84.030391,58.8708908 L69.6618187,58.8708908 L66.4127361,38.2024787 L84.030391,38.2024787 L84.030391,12.8314349 L107.904737,16.8234369 L111.315357,38.2024787 L119.845518,39.511519 L122.778463,58.8708908 L111.315357,58.8708908 L111.315357,100.370335 C111.612066,121.371229 98.5713263,132.111429 68.1141607,125.410569 Z" id="r" transform="translate(94.595599, 70.113521) scale(-1, 1) translate(-94.595599, -70.113521) "/><path d="M26.9557821,103.472378 C23.9576104,95.1770566 35.5259605,92.7565713 42.1670191,90.0990608 C62.1605623,82.098371 62.7926002,75.8026222 63.7248737,63.4220398 C64.6571472,51.0414573 57.4895908,43.8821112 48.902218,39.7573992 C35.5725256,33.3548425 9.72448696,38.1930112 4.50696951,42.6706475 L7.41909787,63.4220402 C34.116199,51.901595 37.1213086,58.7670126 37.7438672,61.1687413 C40.2346671,70.7778376 10.6509725,70.9788857 3.1264008,86.568745 C-0.85443225,94.8164739 -1.48217436,108.890489 6.70355565,117.620376 C24.3709917,136.462278 60.0933142,123.262532 64.8506436,119.857777 L61.4400228,98.7271211 C57.5381275,102.583535 29.9539539,111.7677 26.9557821,103.472378 Z" id="s" transform="translate(32.567431, 82.098373) scale(-1, 1) translate(-32.567431, -82.098373) "/></g></g></g></svg>