<?xml version="1.0" ?><svg height="500" id="svg2" version="1.1" width="500" xmlns="http://www.w3.org/2000/svg" xmlns:cc="http://creativecommons.org/ns#" xmlns:dc="http://purl.org/dc/elements/1.1/" xmlns:inkscape="http://www.inkscape.org/namespaces/inkscape" xmlns:rdf="http://www.w3.org/1999/02/22-rdf-syntax-ns#" xmlns:sodipodi="http://sodipodi.sourceforge.net/DTD/sodipodi-0.dtd" xmlns:svg="http://www.w3.org/2000/svg"><defs id="defs4"/><g id="layer1" transform="translate(0,-552.36218)"><path d="m 0,552.36216 0,500.00004 500,0 0,-500.00004 z" id="rect2989-1" style="fill:#55acee;fill-opacity:1;stroke:none"/><g id="layer1-9" transform="translate(-549.00515,80.294372)"/><g id="layer1-6" transform="translate(-575.71429,39.999999)"/><g id="layer1-93" transform="matrix(0.99928945,0,0,0.99928945,474.7002,-40.81928)"/><path d="M 500,154.44196 500,500 174.28572,500 50.000001,375.71428 l 8.660713,2.45536 112.053576,-4.59821 -56.62947,-56.62947 3.26261,-28.61239 L 88.392859,259.375 360,154.28571 438.99833,93.440288 z" id="path2998" style="fill:#000000;stroke:none;stroke-width:1px;stroke-linecap:butt;stroke-linejoin:miter;stroke-opacity:1;opacity:0.3" transform="translate(0,552.36218)"/><path d="M 324.8125 87.5 C 280.47401 88.623491 244.90625 124.91422 244.90625 169.53125 C 244.90625 175.95409 245.59527 182.2332 247 188.25 C 178.79291 184.82343 118.32141 152.15314 77.84375 102.5 C 70.779413 114.61489 66.71875 128.72697 66.71875 143.78125 C 66.71875 172.24959 81.228858 197.34923 103.25 212.0625 C 89.803471 211.63215 77.12993 207.92802 66.0625 201.78125 C 66.056504 202.12227 66.0625 202.49461 66.0625 202.84375 C 66.0625 242.59877 94.359878 275.72975 131.90625 283.28125 C 125.0206 285.14882 117.76781 286.15625 110.28125 286.15625 C 104.98707 286.15625 99.853708 285.65377 94.84375 284.6875 C 105.29403 317.28886 135.56258 341.02981 171.46875 341.6875 C 143.38204 363.70054 108.04958 376.8125 69.59375 376.8125 C 62.976056 376.8125 56.422813 376.45077 50 375.6875 C 86.328399 398.98354 129.44102 412.5625 175.78125 412.5625 C 326.73815 412.5625 409.28125 287.51178 409.28125 179.0625 C 409.28125 175.506 409.2166 171.93029 409.0625 168.40625 C 425.09118 156.85975 439.00567 142.39655 450 125.9375 C 435.29487 132.47403 419.48018 136.90183 402.875 138.875 C 419.82932 128.72513 432.83826 112.64792 438.96875 93.46875 C 423.1106 102.87971 405.54384 109.71981 386.84375 113.40625 C 371.87879 97.45878 350.54204 87.5 326.9375 87.5 C 326.22942 87.5 325.51628 87.482113 324.8125 87.5 z " id="rect2989" style="fill:#ffffff;fill-opacity:1;stroke:none" transform="translate(0,552.36218)"/></g></svg>